<?xml version="1.0" encoding="utf-8"?>
<!-- Generator: Adobe Illustrator 19.1.0, SVG Export Plug-In . SVG Version: 6.00 Build 0)  -->
<svg version="1.1" id="Layer_1" xmlns="http://www.w3.org/2000/svg" xmlns:xlink="http://www.w3.org/1999/xlink" x="0px" y="0px"
	 viewBox="0 0 233.7 48.5" style="enable-background:new 0 0 233.7 48.5;" xml:space="preserve">
<style type="text/css">
	.st0{clip-path:url(#SVGID_2_);fill:#F1F0F0;}
	.st1{clip-path:url(#SVGID_4_);fill:none;stroke:#FFFFFF;}
	.st2{fill:none;stroke:#FFFFFF;}
	.st3{clip-path:url(#SVGID_6_);}
	.st4{clip-path:url(#SVGID_8_);}
	.st5{clip-path:url(#SVGID_10_);}
	.st6{clip-path:url(#SVGID_12_);fill:none;stroke:#000000;}
	.st7{fill:none;stroke:#000000;}
	.st8{clip-path:url(#SVGID_14_);}
	.st9{clip-path:url(#SVGID_16_);fill:url(#SVGID_17_);}
	.st10{clip-path:url(#SVGID_19_);fill:#F3F1F1;}
	.st11{clip-path:url(#SVGID_21_);}
	.st12{clip-path:url(#SVGID_23_);fill:#FFFFFF;}
	.st13{clip-path:url(#SVGID_25_);fill:#F1F0F0;}
</style>
<g>
	<defs>
		<rect id="SVGID_5_" x="0" y="0" width="233.7" height="48.5"/>
	</defs>
	<clipPath id="SVGID_2_">
		<use xlink:href="#SVGID_5_"  style="overflow:visible;"/>
	</clipPath>
	<path style="clip-path:url(#SVGID_2_);" d="M223.4,37.8h1.3V2h9V0.7h-19.3V2h9V37.8z M187.6,37.8h1.3V4.5l21.6,34V0.7h-1.3v33.4
		L187.6,0V37.8z M165.1,26.8l13.8-22.3v22.3H165.1z M156.8,37.8h1.5l6-9.7h14.6v9.7h1.3V0L156.8,37.8z M135.9,26.8V2h5
		c6.9,0,12.4,5.5,12.4,12.4c0,6.9-5.5,12.4-12.4,12.4H135.9z M134.6,37.8h1.3v-9.7h5c0.7,0,1.3,0,2-0.1l9.9,9.9h1.8l-10.1-10.1
		c5.9-1.5,10.1-7,10.1-13.3c0-7.8-6.3-13.7-13.7-13.7h-6.3V37.8z M108.2,28.9c0,5.3,4.3,9.7,9.6,9.7c5.3,0,9.7-4.3,9.7-9.7V0.7h-1.3
		v28.2c0,4.6-3.8,8.4-8.4,8.4c-4.6,0-8.3-3.8-8.3-8.4V0.7h-1.3V28.9z M83.3,26.8V9.7c0-4.6,3.8-8.4,8.4-8.4c4.6,0,8.3,3.8,8.3,8.4
		v17.2H83.3z M82,37.8h1.3v-9.7h16.7v9.7h1.3V9.7c0-5.3-4.3-9.7-9.6-9.7C86.3,0,82,4.3,82,9.7V37.8z M50.8,37.9
		c5.5,0,9.9-4.2,9.9-9.6c0-8.6-10.3-10.2-10.3-18c0-4.7,3.5-8.3,9.5-8.3H68v35.8h1.3V2h9V0.7H59.9c-6.6,0-10.8,4.2-10.8,9.6
		c0,8.6,10.3,10.2,10.3,18c0,4.7-3.8,8.3-8.6,8.3V37.9z M25.9,37.8h19.3v-1.3h-18V19.3h16.7V18H27.2V2h18V0.7H25.9V37.8z M1.3,26.8
		V2h5c6.9,0,12.4,5.5,12.4,12.4c0,6.9-5.5,12.4-12.4,12.4H1.3z M0,37.8h1.3v-9.7h5c0.7,0,1.3,0,2-0.1c5.9,7.9,15.4,20.5,26.2,20.5
		c5,0,9.6-2,12.9-5.3l-0.9-0.9c-3.1,3.1-7.3,5-12,5C23.6,47.2,14,33.4,9.7,27.7c6-1.6,10.2-7,10.2-13.3c0-7.8-6.4-13.6-13.7-13.7H0
		V37.8z"/>
</g>
</svg>
