<svg id="b837d23a-a25f-406a-838e-3efa8784d803" data-name="Layer 1" xmlns="http://www.w3.org/2000/svg" viewBox="0 0 147.57 36.38"><title>heading-christmas</title><path d="M140.15,28.4a7.26,7.26,0,0,0,7.42-7.2c0-6.46-7.72-7.65-7.72-13.52a6.27,6.27,0,0,1,6.46-6.2v-1a7.26,7.26,0,0,0-7.43,7.16c0,6.43,7.73,7.65,7.73,13.52a6.27,6.27,0,0,1-6.46,6.2Zm-17.9-8.28,5.5-17,5.45,17Zm-3.64,8.24h1L122,21.09H133.5l2.34,7.27h1L127.75,0Zm-20.19,0h1V2.3L107,10l7.65-7.65V28.36h1V0L107,8.61,98.42,0Zm-23.58,0a7.27,7.27,0,0,0,7.43-7.2c0-6.46-7.72-7.65-7.72-13.52,0-3.49,2.63-6.2,7.12-6.2h6.06V28.36h1V1.48h6.76v-1H81.67c-5,0-8.09,3.16-8.09,7.16,0,6.43,7.72,7.65,7.72,13.52a6.27,6.27,0,0,1-6.46,6.2Zm-6.86,0h1V.52H68ZM49.52,20.12V1.48h3.75a9.32,9.32,0,1,1,0,18.64Zm-1,8.24h1V21.09h3.75A11.25,11.25,0,0,0,54.8,21c4.41,5.9,11.58,15.4,19.63,15.4a13.55,13.55,0,0,0,9.66-4l-.67-.67a12.67,12.67,0,0,1-9,3.72c-8.16,0-15.36-10.36-18.59-14.67A10.28,10.28,0,0,0,53.27.52H48.56Zm-20,0h1V14.44H42V28.36h1V.52H42v13H29.51V.52h-1ZM24,24A13.47,13.47,0,1,1,14.44,1a13.41,13.41,0,0,1,9.51,4l.7-.71A14.44,14.44,0,1,0,14.44,28.88a14.34,14.34,0,0,0,10.21-4.23Z"/></svg>