<?xml version="1.0" encoding="utf-8"?>
<!-- Generator: Adobe Illustrator 19.1.0, SVG Export Plug-In . SVG Version: 6.00 Build 0)  -->
<svg version="1.1" id="Layer_1" xmlns="http://www.w3.org/2000/svg" xmlns:xlink="http://www.w3.org/1999/xlink" x="0px" y="0px"
	 viewBox="0 0 427.7 176.1" style="enable-background:new 0 0 427.7 176.1;" xml:space="preserve">
<style type="text/css">
	.st0{clip-path:url(#SVGID_2_);fill:#F1F0F0;}
	.st1{clip-path:url(#SVGID_4_);fill:none;stroke:#FFFFFF;}
	.st2{fill:none;stroke:#FFFFFF;}
	.st3{clip-path:url(#SVGID_6_);}
	.st4{clip-path:url(#SVGID_8_);}
	.st5{clip-path:url(#SVGID_10_);}
	.st6{clip-path:url(#SVGID_12_);fill:none;stroke:#000000;}
	.st7{fill:none;stroke:#000000;}
	.st8{clip-path:url(#SVGID_14_);}
	.st9{clip-path:url(#SVGID_16_);fill:url(#SVGID_17_);}
	.st10{clip-path:url(#SVGID_19_);fill:#F3F1F1;}
	.st11{clip-path:url(#SVGID_21_);}
	.st12{clip-path:url(#SVGID_23_);fill:#FFFFFF;}
	.st13{clip-path:url(#SVGID_25_);fill:#F1F0F0;}
</style>
<g>
	<defs>
		<rect id="SVGID_1_" width="427.7" height="176.1"/>
	</defs>
	<clipPath id="SVGID_2_">
		<use xlink:href="#SVGID_1_"  style="overflow:visible;"/>
	</clipPath>
	<path class="st0" d="M136.8,167H5.8V3.2H0v169.8h136.8V167z M137,86.5V3.2h-5.9v83.3c0,23-18.6,41.8-41.5,41.8
		s-41.5-18.7-41.5-41.8V3.2h-5.9v83.3c0,26.3,21.3,47.7,47.4,47.7S137,112.8,137,86.5 M166.2,88c0-45.3,36.6-82.2,81.6-82.2
		c22.5,0,42.7,9.3,57.5,24.2l4.3-4.3C293.6,10,271.8,0,247.8,0c-48.3,0-87.4,39.4-87.4,88c0,48.7,39.1,88,87.4,88
		c24,0,45.8-9.7,61.8-25.8l-4.3-4.1c-14.8,14.9-35,24-57.5,24C202.8,170.2,166.2,133.3,166.2,88 M405.7,122.7h-66.3L372.7,19
		L405.7,122.7z M427.7,172.9L372.7,0l-55.3,172.9h6.1l14.2-44.4h69.9l14.2,44.4H427.7z"/>
</g>
</svg>
